<svg xmlns="http://www.w3.org/2000/svg" xmlns:xlink="http://www.w3.org/1999/xlink" width="1000" zoomAndPan="magnify" viewBox="0 0 750 149.999998" height="200" preserveAspectRatio="xMidYMid meet" version="1.0"><defs><g/><clipPath id="id1"><path d="M 33.789062 15 L 143.289062 15 L 143.289062 126.75 L 33.789062 126.75 Z M 33.789062 15 " clip-rule="nonzero"/></clipPath><clipPath id="id2"><path d="M 91.671875 63.882812 L 99.171875 63.882812 L 99.171875 83.382812 L 91.671875 83.382812 Z M 91.671875 63.882812 " clip-rule="nonzero"/></clipPath><clipPath id="id3"><path d="M 83.757812 65.78125 L 89.757812 65.78125 L 89.757812 83.78125 L 83.757812 83.78125 Z M 83.757812 65.78125 " clip-rule="nonzero"/></clipPath><clipPath id="id4"><path d="M 76.667969 67.871094 L 82.667969 67.871094 L 82.667969 83.621094 L 76.667969 83.621094 Z M 76.667969 67.871094 " clip-rule="nonzero"/></clipPath><clipPath id="id5"><path d="M 69.464844 70.257812 L 75.464844 70.257812 L 75.464844 83.757812 L 69.464844 83.757812 Z M 69.464844 70.257812 " clip-rule="nonzero"/></clipPath><clipPath id="id6"><path d="M 83.082031 57.648438 L 107.832031 57.648438 L 107.832031 64.398438 L 83.082031 64.398438 Z M 83.082031 57.648438 " clip-rule="nonzero"/></clipPath></defs><g clip-path="url(#id1)"><path fill="#e4af0f" d="M 41.742188 67.222656 C 41.742188 47.675781 65.785156 31.84375 95.4375 31.84375 C 107.738281 31.84375 119.074219 34.566406 128.128906 39.148438 L 143.28125 23.917969 C 131.886719 18.300781 117.820312 15 102.585938 15 C 64.597656 15 33.792969 35.601562 33.792969 61.027344 C 33.792969 72.628906 40.222656 83.238281 50.839844 91.351562 C 60.40625 98.65625 69.769531 100.886719 81.863281 100.886719 C 95.625 100.886719 107.902344 96.675781 115.992188 90.070312 C 122.175781 85.015625 124 78.367188 120.488281 70.792969 C 119.320312 68.273438 117.429688 65.839844 114.660156 63.507812 C 118.886719 73.144531 116.710938 80.660156 107.511719 85.34375 C 101.703125 88.316406 94.390625 90.089844 86.445312 90.089844 C 78.558594 90.089844 71.289062 88.335938 65.480469 85.40625 L 58.230469 92.714844 C 48.066406 86.273438 41.742188 77.230469 41.742188 67.222656 Z M 135.335938 74.527344 C 135.335938 94.074219 111.289062 109.90625 81.640625 109.90625 C 69.339844 109.90625 58.003906 107.183594 48.949219 102.601562 L 33.792969 117.832031 C 45.191406 123.449219 59.257812 126.75 74.492188 126.75 C 112.480469 126.75 143.28125 106.148438 143.28125 80.722656 C 143.28125 68.089844 135.644531 56.613281 123.304688 48.292969 C 114.882812 42.636719 105.316406 40.863281 95.210938 40.863281 C 81.453125 40.863281 69.175781 45.074219 61.085938 51.679688 C 54.902344 56.734375 53.078125 63.382812 56.585938 70.957031 C 57.757812 73.476562 59.648438 75.910156 62.417969 78.242188 C 58.1875 68.605469 60.367188 61.089844 69.566406 56.40625 C 75.375 53.433594 82.707031 51.660156 90.632812 51.660156 C 98.519531 51.660156 105.789062 53.414062 111.597656 56.34375 L 118.847656 49.035156 C 129.011719 55.476562 135.335938 64.519531 135.335938 74.527344 Z M 135.335938 74.527344 " fill-opacity="1" fill-rule="evenodd"/></g><g fill="#000000" fill-opacity="1"><g transform="translate(180.195185, 99.551149)"><g><path d="M 53.5625 -51.011719 L 2.550781 -51.011719 L 2.550781 -40.808594 L 22.957031 -40.808594 L 22.957031 0 L 33.15625 0 L 33.15625 -40.808594 L 53.5625 -40.808594 Z M 53.5625 -51.011719 "/></g></g></g><g fill="#000000" fill-opacity="1"><g transform="translate(256.392971, 99.551149)"><g><path d="M 53.5625 -40.808594 C 53.5625 -46.421875 48.972656 -51.011719 43.359375 -51.011719 L 2.550781 -51.011719 L 2.550781 0 L 12.753906 0 L 12.753906 -20.40625 L 18.746094 -20.40625 L 37.621094 -1.53125 C 38.640625 -0.511719 39.917969 0 41.320312 0 L 53.5625 0 L 53.5625 -10.203125 L 43.359375 -10.203125 L 33.15625 -20.40625 L 43.359375 -20.40625 C 48.972656 -20.40625 53.5625 -24.996094 53.5625 -30.605469 Z M 43.359375 -40.808594 L 43.359375 -30.605469 L 12.753906 -30.605469 L 12.753906 -40.808594 Z M 43.359375 -40.808594 "/></g></g></g><g clip-path="url(#id2)"><path fill="#000000" d="M 91.671875 63.894531 L 99.171875 63.894531 L 99.171875 83.371094 L 91.671875 83.371094 L 91.671875 63.894531 " fill-opacity="1" fill-rule="nonzero"/></g><g clip-path="url(#id3)"><path fill="#000000" d="M 83.757812 65.789062 L 89.757812 65.789062 L 89.757812 83.773438 L 83.757812 83.773438 L 83.757812 65.789062 " fill-opacity="1" fill-rule="nonzero"/></g><g clip-path="url(#id4)"><path fill="#000000" d="M 76.667969 67.878906 L 82.667969 67.878906 L 82.667969 83.613281 L 76.667969 83.613281 L 76.667969 67.878906 " fill-opacity="1" fill-rule="nonzero"/></g><g clip-path="url(#id5)"><path fill="#000000" d="M 69.464844 70.261719 L 75.464844 70.261719 L 75.464844 83.75 L 69.464844 83.75 L 69.464844 70.261719 " fill-opacity="1" fill-rule="nonzero"/></g><g clip-path="url(#id6)"><path fill="#000000" d="M 107.820312 57.648438 L 107.820312 64.398438 L 83.097656 64.398438 L 83.097656 57.648438 L 107.820312 57.648438 " fill-opacity="1" fill-rule="nonzero"/></g><g fill="#000000" fill-opacity="1"><g transform="translate(349.73568, 100.230979)"><g><path d="M 53.5625 -51.011719 L 12.753906 -51.011719 C 7.140625 -51.011719 2.550781 -46.421875 2.550781 -40.808594 L 2.550781 -30.605469 C 2.550781 -24.996094 7.140625 -20.40625 12.753906 -20.40625 L 43.359375 -20.40625 L 43.359375 -10.203125 L 2.550781 -10.203125 L 2.550781 0 L 43.359375 0 C 48.972656 0 53.5625 -4.589844 53.5625 -10.203125 L 53.5625 -20.40625 C 53.5625 -26.015625 48.972656 -30.605469 43.359375 -30.605469 L 12.753906 -30.605469 L 12.753906 -40.808594 L 53.5625 -40.808594 Z M 53.5625 -51.011719 "/></g></g></g><g fill="#000000" fill-opacity="1"><g transform="translate(425.933466, 100.230979)"><g><path d="M 53.5625 -51.011719 L 2.550781 -51.011719 L 2.550781 -40.808594 L 22.957031 -40.808594 L 22.957031 0 L 33.15625 0 L 33.15625 -40.808594 L 53.5625 -40.808594 Z M 53.5625 -51.011719 "/></g></g></g><g fill="#000000" fill-opacity="1"><g transform="translate(502.131252, 100.230979)"><g><path d="M 12.753906 -51.011719 C 7.140625 -51.011719 2.550781 -46.421875 2.550781 -40.808594 L 2.550781 0 L 12.753906 0 L 12.753906 -20.40625 L 43.359375 -20.40625 L 43.359375 0 L 53.5625 0 L 53.5625 -40.808594 C 53.5625 -46.421875 48.972656 -51.011719 43.359375 -51.011719 Z M 12.753906 -40.808594 L 43.359375 -40.808594 L 43.359375 -30.605469 L 12.753906 -30.605469 Z M 12.753906 -40.808594 "/></g></g></g><g fill="#000000" fill-opacity="1"><g transform="translate(578.329044, 100.230979)"><g><path d="M 53.5625 -51.011719 L 41.320312 -51.011719 C 39.917969 -51.011719 38.640625 -50.5 37.621094 -49.480469 L 18.746094 -30.605469 L 12.753906 -30.605469 L 12.753906 -51.011719 L 2.550781 -51.011719 L 2.550781 0 L 12.753906 0 L 12.753906 -20.40625 L 18.746094 -20.40625 L 37.621094 -1.53125 C 38.640625 -0.511719 39.917969 0 41.320312 0 L 53.5625 0 L 53.5625 -10.203125 L 43.359375 -10.203125 L 28.054688 -25.507812 L 43.359375 -40.808594 L 53.5625 -40.808594 Z M 53.5625 -51.011719 "/></g></g></g><g fill="#000000" fill-opacity="1"><g transform="translate(654.526824, 100.230979)"><g><path d="M 53.5625 -51.011719 L 12.753906 -51.011719 C 7.140625 -51.011719 2.550781 -46.421875 2.550781 -40.808594 L 2.550781 -10.203125 C 2.550781 -4.589844 7.140625 0 12.753906 0 L 53.5625 0 L 53.5625 -10.203125 L 12.753906 -10.203125 L 12.753906 -20.40625 L 53.5625 -20.40625 L 53.5625 -30.605469 L 12.753906 -30.605469 L 12.753906 -40.808594 L 53.5625 -40.808594 Z M 53.5625 -51.011719 "/></g></g></g></svg>