<svg width="20" height="20" viewBox="0 0 20 20" fill="none" xmlns="http://www.w3.org/2000/svg">
<g clip-path="url(#clip0_3354_10666)">
<path fill-rule="evenodd" clip-rule="evenodd" d="M20 10C20 4.47733 15.5227 0 10 0C4.47733 0 0 4.47733 0 10C0 15.5227 4.47733 20 10 20C15.5227 20 20 15.5227 20 10ZM5.1464 6.78657C5.1464 6.7744 6.23769 6.13167 7.57149 5.35829L9.99658 3.95215L10.4238 4.20179C10.6588 4.3391 11.7478 4.97101 12.8439 5.60605C13.9399 6.24108 14.8317 6.77532 14.8255 6.79317C14.8193 6.81106 13.73 7.45423 12.4048 8.22245L9.99549 9.61918L7.57093 8.21396C6.23745 7.44106 5.1464 6.79874 5.1464 6.78657ZM4.66602 13.1909V10.3665C4.66602 8.77934 4.68127 7.54786 4.70088 7.55539C4.72006 7.56271 5.81895 8.19675 7.14286 8.96433L9.54997 10.3599V16.0341L9.21971 15.8399C9.03804 15.7332 8.15084 15.2177 7.24811 14.6945C6.34538 14.1713 5.39513 13.6189 5.1364 13.4671L4.66602 13.1909ZM12.4223 9.21109C13.5177 8.57654 14.6031 7.94446 14.8343 7.80647C15.0654 7.66852 15.2681 7.55407 15.2846 7.55215C15.3012 7.55026 15.3143 8.82322 15.3139 10.381L15.3132 13.2133L14.7234 13.5513C14.3991 13.7372 13.3591 14.3382 12.4123 14.887C11.4655 15.4357 10.6324 15.9201 10.5608 15.9634L10.4307 16.0421V10.3648L12.4223 9.21109Z" fill="black"/>
</g>
<defs>
<clipPath id="clip0_3354_10666">
<rect width="20" height="20" fill="white"/>
</clipPath>
</defs>
</svg>
